<?xml version="1.0" encoding="utf-8"?>
<!-- Generator: Adobe Illustrator 22.1.0, SVG Export Plug-In . SVG Version: 6.00 Build 0)  -->
<svg version="1.1" id="Layer_1" xmlns="http://www.w3.org/2000/svg" xmlns:xlink="http://www.w3.org/1999/xlink" x="0px" y="0px"
	 viewBox="0 0 512 512" style="enable-background:new 0 0 512 512;" xml:space="preserve">
<style type="text/css">
	.st0{fill:#FF624B;}
	.st1{fill:#FFC34C;}
	.st2{fill:#F9BB32;}
	.st3{fill:#DB9C2E;}
	.st4{fill:#FF4B34;}
	.st5{fill:#FF9079;}
	.st6{fill:#FCE575;}
	.st7{fill:#FFD551;}
	.st8{fill:#FFF4C1;}
	.st9{fill:#FFB74B;}
	.st10{fill:#EACF32;}
	.st11{fill:#99AF17;}
	.st12{fill:#CCC033;}
	.st13{fill:#FCDA4F;}
	.st14{fill:#FFA730;}
	.st15{fill:#FFEACF;}
	.st16{fill:#FFD59A;}
	.st17{fill:#FFDF74;}
	.st18{fill:#E58D23;}
	.st19{fill:#BF6C0D;}
	.st20{fill:#A56021;}
	.st21{fill:#8C4C17;}
	.st22{fill:#FFEA63;}
	.st23{fill:#FCF9DE;}
</style>
<g>
	<g>
		<path class="st0" d="M185.012,278.334c-4.418,0-8,4.262-8,9.519v57.589l-25.666,17.401c-2.27,1.539-2.353,4.853-0.164,6.504
			l25.83,19.487v6.935c0,5.257,3.582,9.519,8,9.519h70.982V278.334H185.012z"/>
	</g>
	<g>
		<circle class="st1" cx="257.243" cy="114.942" r="43.013"/>
	</g>
	<g>
		<path class="st1" d="M257.243,156.722c-38.421,0-69.567,31.146-69.567,69.567h139.134
			C326.811,187.868,295.664,156.722,257.243,156.722z"/>
	</g>
	<g>
		<path class="st9" d="M269.39,157.811c-1.363-0.24-2.735-0.455-4.124-0.615c1.401-0.264,2.774-0.604,4.124-1
			c-17.838-5.243-30.866-21.719-30.866-41.254c0-19.535,13.028-36.019,30.866-41.262c-3.853-1.133-7.927-1.751-12.146-1.751
			c-23.755,0-43.013,19.257-43.013,43.013c0,21.012,15.071,38.495,34.99,42.254c-34.64,3.98-61.545,33.387-61.545,69.092h24.293
			C211.969,192.015,236.764,163.56,269.39,157.811z"/>
	</g>
	<g>
		<circle class="st12" cx="427.966" cy="328.724" r="43.013"/>
	</g>
	<g>
		<path class="st12" d="M427.966,370.504c-38.421,0-69.567,31.146-69.567,69.567h139.134
			C497.534,401.65,466.387,370.504,427.966,370.504z"/>
	</g>
	<g>
		<path class="st11" d="M440.113,371.593c-1.363-0.24-2.735-0.455-4.124-0.615c1.401-0.264,2.774-0.604,4.124-1
			c-17.838-5.243-30.866-21.719-30.866-41.254c0-19.535,13.028-36.019,30.866-41.262c-3.853-1.133-7.927-1.751-12.146-1.751
			c-23.755,0-43.013,19.258-43.013,43.013c0,21.012,15.071,38.495,34.99,42.254c-34.64,3.98-61.545,33.387-61.545,69.092h24.293
			C382.692,405.797,407.487,377.342,440.113,371.593z"/>
	</g>
	<g>
		<circle class="st0" cx="84.034" cy="328.724" r="43.013"/>
	</g>
	<g>
		<path class="st0" d="M84.033,370.504c-38.421,0-69.567,31.146-69.567,69.567h139.134
			C153.601,401.65,122.455,370.504,84.033,370.504z"/>
	</g>
	<g>
		<path class="st4" d="M96.18,371.593c-1.363-0.24-2.735-0.455-4.124-0.615c1.401-0.264,2.774-0.604,4.124-1
			c-17.838-5.243-30.866-21.719-30.866-41.254c0-19.535,13.028-36.019,30.866-41.262c-3.853-1.133-7.927-1.751-12.146-1.751
			c-23.755,0-43.013,19.258-43.013,43.013c0,21.012,15.071,38.495,34.99,42.254c-34.64,3.98-61.545,33.387-61.545,69.092h24.293
			C38.759,405.797,63.555,377.342,96.18,371.593z"/>
	</g>
	<g>
		<path class="st12" d="M359.654,359.515l-24.677-16.731v-54.931c0-5.257-3.582-9.519-8-9.519h-70.982v126.953h70.982
			c4.418,0,8-4.262,8-9.519V384.76l24.842-18.742C362.007,364.367,361.923,361.053,359.654,359.515z"/>
	</g>
	<g>
		<path class="st4" d="M195.012,395.768v-6.935l-25.83-19.487c-2.189-1.651-2.105-4.965,0.164-6.504l25.666-17.401v-57.589
			c0-5.257,3.582-9.519,8-9.519h-18c-4.418,0-8,4.262-8,9.519v57.589l-25.666,17.401c-2.27,1.539-2.353,4.853-0.164,6.504
			l25.83,19.487v6.935c0,5.257,3.582,9.519,8,9.519h18C198.593,405.287,195.012,401.025,195.012,395.768z"/>
	</g>
	<g>
		<path class="st7" d="M326.977,277.334h-49.674l-15.868-28.524c-1.686-3.03-6.697-3.03-8.382,0l-15.868,28.524h-52.172
			c-4.418,0-8,4.262-8,9.519v42.526h157.965v-42.526C334.977,281.595,331.395,277.334,326.977,277.334z"/>
	</g>
	<g>
		<path class="st22" d="M320.846,326.126c-3.313,0-6-2.687-6-6v-28c0-3.313,2.687-6,6-6s6,2.687,6,6v28
			C326.846,323.439,324.159,326.126,320.846,326.126z"/>
	</g>
	<g>
		<g>
			<path class="st1" d="M266.243,257.454l-4.809-8.645c-1.686-3.03-6.697-3.03-8.382,0l-15.868,28.524h18L266.243,257.454z"/>
		</g>
		<g>
			<path class="st1" d="M203.012,277.334h-18c-4.418,0-8,4.262-8,9.519v42.526h18v-42.526
				C195.012,281.595,198.593,277.334,203.012,277.334z"/>
		</g>
	</g>
	<g>
		<circle class="st4" cx="79.301" cy="410.708" r="16.879"/>
	</g>
	<g>
		<path class="st10" d="M480.842,431.473c-3.22,0-5.883-2.555-5.993-5.798c-0.847-25.116-30.504-34.731-30.804-34.825
			c-3.161-0.994-4.917-4.362-3.923-7.523s4.36-4.919,7.524-3.924c1.554,0.488,38.066,12.354,39.196,45.868
			c0.112,3.312-2.482,6.087-5.794,6.199C480.979,431.472,480.91,431.473,480.842,431.473z"/>
	</g>
</g>
</svg>
