<?xml version="1.0" encoding="utf-8"?>
<!-- Generator: Adobe Illustrator 22.1.0, SVG Export Plug-In . SVG Version: 6.00 Build 0)  -->
<svg version="1.1" id="Layer_1" xmlns="http://www.w3.org/2000/svg" xmlns:xlink="http://www.w3.org/1999/xlink" x="0px" y="0px"
	 viewBox="0 0 512 512" style="enable-background:new 0 0 512 512;" xml:space="preserve">
<style type="text/css">
	.st0{fill:#FF624B;}
	.st1{fill:#FFC34C;}
	.st2{fill:#F9BB32;}
	.st3{fill:#DB9C2E;}
	.st4{fill:#FF4B34;}
	.st5{fill:#FF9079;}
	.st6{fill:#FCE575;}
	.st7{fill:#FFD551;}
	.st8{fill:#FFF4C1;}
	.st9{fill:#FFB74B;}
	.st10{fill:#EACF32;}
	.st11{fill:#99AF17;}
	.st12{fill:#CCC033;}
	.st13{fill:#FCDA4F;}
	.st14{fill:#FFA730;}
	.st15{fill:#FFEACF;}
	.st16{fill:#FFD59A;}
	.st17{fill:#FFDF74;}
	.st18{fill:#E58D23;}
	.st19{fill:#BF6C0D;}
	.st20{fill:#A56021;}
	.st21{fill:#8C4C17;}
	.st22{fill:#FFEA63;}
	.st23{fill:#FCF9DE;}
</style>
<g>
	<g>
		
			<rect x="105.047" y="174.313" transform="matrix(0.7071 0.7071 -0.7071 0.7071 191.3773 -36.9282)" class="st15" width="70.436" height="76.472"/>
	</g>
	<g>
		<path class="st15" d="M236.018,406.946L128.701,299.63c-7.029-7.029-7.029-18.426,0-25.456l78.697-78.697l120.044,120.044
			L236.018,406.946z"/>
	</g>
	<g>
		<path class="st15" d="M254.465,334.228l44.934,44.934c3.007,3.007,3.007,7.883,0,10.89l-11.671,11.671
			c-3.007,3.007-7.883,3.007-10.89,0l-44.934-44.934c-5.614-5.614-5.614-14.717,0-20.332l2.23-2.23
			C239.747,328.614,248.85,328.614,254.465,334.228z"/>
	</g>
	<g>
		<path class="st15" d="M277.452,311.241l44.934,44.934c3.007,3.007,3.007,7.883,0,10.89l-11.671,11.671
			c-3.007,3.007-7.883,3.007-10.89,0l-44.934-44.934c-5.614-5.615-5.614-14.717,0-20.332l2.23-2.23
			C262.734,305.626,271.837,305.626,277.452,311.241z"/>
	</g>
	<g>
		
			<rect x="96.282" y="179.711" transform="matrix(0.7071 -0.7071 0.7071 0.7071 -106.8317 155.6896)" class="st16" width="76.472" height="54.181"/>
	</g>
	<g>
		<path class="st2" d="M86.526,249.317l-69.585-69.585c-4.686-4.686-4.686-12.284,0-16.971l74.429-74.429
			c4.686-4.686,12.284-4.686,16.971,0l69.585,69.585c4.686,4.686,4.686,12.284,0,16.971l-74.429,74.429
			C98.811,254.003,91.213,254.003,86.526,249.317z"/>
	</g>
	<g>
		<g>
			<path class="st16" d="M193.555,299.604l-18.741-18.741c-11.716-11.716-11.716-30.711,0-42.426l27.906-27.906l39.954,39.954
				c11.716,11.716,11.716,30.711,0,42.426l-6.693,6.693C224.265,311.319,205.271,311.319,193.555,299.604z"/>
		</g>
	</g>
	<g>
		<path class="st15" d="M191.749,291.035l-18.741-18.741c-11.716-11.716-11.716-30.711,0-42.426l27.906-27.906l39.954,39.954
			c11.716,11.716,11.716,30.711,0,42.426l-6.693,6.693C222.459,302.751,203.464,302.751,191.749,291.035z"/>
	</g>
	<g>
		<path class="st16" d="M227.179,412.103l73.955-73.955l-21.34-21.34l-73.955,73.955c-5.311,5.311-5.311,13.921,0,19.231
			l2.109,2.109C213.258,417.413,221.869,417.413,227.179,412.103z"/>
	</g>
	<g>
		<path class="st16" d="M171.504,382.787l89.909-89.909l21.34,21.34l-89.909,89.909c-5.311,5.311-13.921,5.311-19.231,0
			l-2.109-2.109C166.193,396.707,166.193,388.097,171.504,382.787z"/>
	</g>
	<g>
		<path class="st16" d="M256.22,423.905l107.316-107.316c7.029-7.029,7.029-18.426,0-25.456l-72.04-72.04L171.452,339.137
			L256.22,423.905z"/>
	</g>
	<g>
		
			<rect x="325.234" y="200.007" transform="matrix(-0.7071 0.7071 -0.7071 -0.7071 783.7933 151.8273)" class="st16" width="70.436" height="76.472"/>
	</g>
	<g>
		
			<rect x="347.583" y="177.658" transform="matrix(-0.7071 0.7071 -0.7071 -0.7071 806.142 97.8728)" class="st1" width="70.436" height="76.472"/>
	</g>
	<g>
		<path class="st16" d="M157.795,353.978l81.908-81.908l21.34,21.34l-81.908,81.908c-5.311,5.311-13.921,5.311-19.231,0
			l-2.109-2.109C152.485,367.898,152.485,359.288,157.795,353.978z"/>
	</g>
	<g>
		<path class="st1" d="M185.668,341.43c-5.893,5.893-5.893,15.447,0,21.34c1.045,1.045,2.21,1.896,3.445,2.57l-8.923,8.923
			c-5.893,5.893-15.447,5.893-21.34,0c-5.893-5.893-5.893-15.447,0-21.34l80.853-80.853l7.662,7.662L185.668,341.43z"/>
	</g>
	<g>
		<path class="st16" d="M246.549,278.883l47.311-46.403c3.489-3.422,3.489-8.97,0-12.392l-10.953-10.743
			c-3.489-3.422-9.145-3.422-12.634,0l-47.311,46.403c-6.513,6.388-6.513,16.746,0,23.135l0,0
			C229.475,285.272,240.036,285.272,246.549,278.883z"/>
	</g>
	<g>
		<path class="st1" d="M241.022,278.883L241.022,278.883c-6.513-6.388-6.513-16.746,0-23.135l44.598-43.742l-2.713-2.661
			c-3.489-3.422-9.145-3.422-12.634,0l-47.311,46.403c-6.513,6.388-6.513,16.746,0,23.135l0,0
			c5.657,5.549,14.364,6.271,20.824,2.181C242.808,280.446,241.879,279.723,241.022,278.883z"/>
	</g>
	<g>
		<path class="st15" d="M241.013,261.114l-41.396-41.396c-4.545-4.545-4.545-11.915,0-16.46l12.282-12.282
			c4.545-4.545,11.915-4.545,16.46,0l41.396,41.396c7.152,7.152,7.152,18.749,0,25.901l-2.84,2.841
			C259.761,268.266,248.165,268.266,241.013,261.114z"/>
	</g>
	<g>
		<path class="st1" d="M150.683,169.856c-1.536,0-3.071-0.586-4.243-1.758l-36.274-36.275c-2.343-2.343-2.343-6.142,0.001-8.485
			c2.343-2.343,6.143-2.342,8.485,0.001l36.274,36.275c2.343,2.343,2.343,6.142-0.001,8.485
			C153.754,169.271,152.218,169.856,150.683,169.856z"/>
	</g>
	<g>
		<path class="st16" d="M258.25,423.199l73.955-73.955l-21.34-21.34l-73.955,73.955c-5.311,5.311-5.311,13.921,0,19.231l2.109,2.109
			C244.329,428.51,252.939,428.51,258.25,423.199z"/>
	</g>
	<g>
		<path class="st15" d="M299.8,288.892l44.934,44.934c3.007,3.007,3.007,7.883,0,10.89l-11.671,11.671
			c-3.007,3.007-7.883,3.007-10.89,0l-44.934-44.934c-5.614-5.614-5.614-14.717,0-20.332l2.23-2.23
			C285.083,283.278,294.186,283.278,299.8,288.892z"/>
	</g>
	<g>
		<path class="st15" d="M233.226,355.467l44.934,44.934c3.007,3.007,3.007,7.883,0,10.89l-11.671,11.671
			c-3.007,3.007-7.883,3.007-10.89,0l-44.934-44.934c-5.614-5.614-5.614-14.717,0-20.332l2.23-2.23
			C218.508,349.853,227.611,349.853,233.226,355.467z"/>
	</g>
	<g>
		<path class="st15" d="M255.574,333.118l44.934,44.934c3.007,3.007,3.007,7.883,0,10.89l-11.671,11.671
			c-3.007,3.007-7.883,3.007-10.89,0l-44.934-44.934c-5.614-5.614-5.614-14.717,0-20.332l2.23-2.23
			C240.857,327.504,249.96,327.504,255.574,333.118z"/>
	</g>
	<g>
		<path class="st15" d="M277.452,311.241l44.934,44.934c3.007,3.007,3.007,7.883,0,10.89l-11.671,11.671
			c-3.007,3.007-7.883,3.007-10.89,0l-44.934-44.934c-5.614-5.615-5.614-14.717,0-20.332l2.23-2.23
			C262.734,305.626,271.837,305.626,277.452,311.241z"/>
	</g>
	<g>
		<path class="st12" d="M334.074,171.002l69.585-69.585c4.686-4.686,12.284-4.686,16.971,0l74.429,74.429
			c4.686,4.686,4.686,12.284,0,16.971l-69.585,69.585c-4.686,4.686-12.284,4.686-16.971,0l-74.429-74.429
			C329.388,183.286,329.388,175.688,334.074,171.002z"/>
	</g>
	<g>
		<path class="st3" d="M58.93,180.663c-5.2-5.2-5.2-13.631,0-18.832l61.455-61.455l-11.113-11.113c-5.2-5.2-13.631-5.2-18.832,0
			l-72.568,72.568c-5.2,5.2-5.2,13.631,0,18.832l67.724,67.724c5.2,5.2,13.631,5.2,18.832,0l11.113-11.113L58.93,180.663z"/>
	</g>
	<g>
		<path class="st11" d="M378.282,188.903c-5.2-5.2-5.2-13.631,0-18.832l55.501-55.501l-12.223-12.223c-5.2-5.2-13.631-5.2-18.831,0
			l-67.724,67.724c-5.2,5.2-5.2,13.631,0,18.832l72.568,72.568c5.2,5.2,13.631,5.2,18.832,0l12.223-12.223L378.282,188.903z"/>
	</g>
	<g>
		<path class="st10" d="M446.185,227.021c-1.536,0-3.071-0.586-4.243-1.758c-2.343-2.343-2.343-6.142,0.001-8.485l36.275-36.274
			c2.343-2.343,6.143-2.342,8.485,0.001s2.343,6.142-0.001,8.485l-36.275,36.274C449.256,226.435,447.72,227.021,446.185,227.021z"
			/>
	</g>
	<g>
		<circle class="st3" cx="82.178" cy="170.949" r="15"/>
	</g>
	<g>
		<circle class="st11" cx="404.333" cy="178.856" r="15"/>
	</g>
</g>
</svg>
