<svg width="137" height="92" viewBox="0 0 137 92" fill="none" xmlns="http://www.w3.org/2000/svg">
<path d="M27.952 91.536C21.2107 91.536 15.8773 90.5547 11.952 88.592C8.112 86.544 4.31467 83.3867 0.56 79.12L11.184 68.24C13.744 71.6533 16.176 74.0427 18.48 75.408C20.8693 76.7733 23.856 77.456 27.44 77.456C32.9013 77.456 36.9973 76.2613 39.728 73.872C42.544 71.3973 43.952 67.8133 43.952 63.12V0.399994H62V63.12C62 72.5067 59.0987 79.5893 53.296 84.368C47.5787 89.1467 39.1307 91.536 27.952 91.536ZM107.897 90C96.9743 90 89.1237 87.6107 84.345 82.832C79.6517 78.0533 77.305 71.1413 77.305 62.096V0.399994H95.353V62.096C95.353 66.7893 96.377 70.288 98.425 72.592C100.473 74.8107 103.63 75.92 107.897 75.92H136.569V90H107.897Z" fill="white"/>
</svg>
